<svg width="784" height="263" viewBox="0 0 784 263" fill="none" xmlns="http://www.w3.org/2000/svg">
<path d="M330.376 8.90399C345.821 5.91733 357.213 3.99733 364.552 3.144C371.976 2.20533 375.688 1.73599 375.688 1.73599C382.856 0.626663 389.213 0.925331 394.76 2.632C400.307 4.25333 405 6.89866 408.84 10.568C412.68 14.2373 415.624 18.7173 417.672 24.008C419.72 29.2987 420.872 34.9733 421.128 41.032C421.384 47.0907 420.701 53.3627 419.08 59.848C417.544 66.248 414.984 72.4773 411.4 78.536C407.901 84.5093 403.379 90.0987 397.832 95.304C392.371 100.424 385.885 104.733 378.376 108.232C378.376 108.232 377.608 108.488 376.072 109C374.621 109.427 372.104 109.811 368.52 110.152C365.021 110.579 360.328 110.749 354.44 110.664C348.552 110.579 341.213 109.981 332.424 108.872L330.376 8.90399ZM363.4 79.816C368.264 78.7067 372.189 77.0427 375.176 74.824C378.248 72.52 380.552 70.1733 382.088 67.784C383.624 65.3093 384.691 62.8773 385.288 60.488C385.971 58.0987 386.312 56.2213 386.312 54.856C386.312 53.4053 386.312 52.6373 386.312 52.552C386.312 52.3813 386.184 51.5707 385.928 50.12C385.672 48.584 385.117 46.792 384.264 44.744C383.411 42.696 382.216 41.032 380.68 39.752C379.144 38.3867 377.053 37.832 374.408 38.088C371.763 38.344 368.52 40.008 364.68 43.08L363.4 79.816ZM461.797 100.296H461.541C459.237 103.539 456.293 105.8 452.709 107.08C449.21 108.36 445.413 109 441.317 109C437.904 109 434.661 108.403 431.589 107.208C428.517 105.928 425.829 104.136 423.525 101.832C421.221 99.528 419.386 96.7547 418.021 93.512C416.656 90.2693 415.973 86.6427 415.973 82.632C415.973 79.1333 416.656 75.9333 418.021 73.032C419.386 70.0453 421.221 67.4853 423.525 65.352C425.914 63.1333 428.688 61.4267 431.845 60.232C435.088 58.952 438.586 58.312 442.341 58.312C446.266 58.312 449.552 58.9093 452.197 60.104C454.928 61.2133 457.232 62.4933 459.109 63.944V60.104C459.109 56.1787 457.829 53.576 455.269 52.296C452.709 51.016 449.381 50.376 445.285 50.376C441.53 50.376 438.032 50.76 434.789 51.528C431.546 52.296 428.261 53.192 424.933 54.216L429.925 33.864C434.021 32.6693 438.288 31.8587 442.725 31.432C447.162 30.92 451.685 30.664 456.293 30.664C460.474 30.664 464.57 31.176 468.581 32.2C472.592 33.1387 476.09 34.7173 479.077 36.936C482.149 39.1547 484.581 42.0133 486.373 45.512C488.165 49.0107 489.018 53.32 488.933 58.44L487.525 106.824L461.797 109V100.296ZM445.541 76.616C442.64 77.0427 440.25 78.0667 438.373 79.688C436.496 81.224 435.685 82.9733 435.941 84.936C436.282 86.8987 437.477 88.392 439.525 89.416C441.658 90.3547 444.389 90.568 447.717 90.056C451.045 89.544 453.52 88.4773 455.141 86.856C456.762 85.2347 457.402 83.4853 457.061 81.608C456.805 79.9867 455.696 78.6213 453.733 77.512C451.856 76.3173 449.125 76.0187 445.541 76.616ZM524.842 32.456V41.16C527.573 38.1733 530.389 35.9973 533.29 34.632C536.277 33.1813 539.818 32.456 543.914 32.456C549.034 32.456 553.685 33.608 557.866 35.912C562.133 38.1307 565.717 41.0747 568.618 44.744C571.605 48.4133 573.909 52.5947 575.53 57.288C577.151 61.896 577.962 66.5893 577.962 71.368C577.962 76.488 577.109 81.4373 575.402 86.216C573.695 90.9093 571.263 95.0907 568.106 98.76C565.034 102.429 561.322 105.373 556.97 107.592C552.618 109.811 547.839 110.92 542.634 110.92C539.989 110.92 537.13 110.536 534.058 109.768C531.071 109 528.383 107.464 525.994 105.16L526.762 130.632L499.754 132.936L498.346 34.76L524.842 32.456ZM542.25 81.992C546.09 80.2 548.65 77.6827 549.93 74.44C551.295 71.1973 551.295 68.168 549.93 65.352C548.565 62.4507 546.218 60.5307 542.89 59.592C539.647 58.568 536.106 58.952 532.266 60.744C528.341 62.6213 525.695 65.1813 524.33 68.424C522.965 71.5813 523.007 74.6107 524.458 77.512C525.141 78.9627 526.079 80.2 527.274 81.224C528.469 82.1627 529.834 82.8453 531.37 83.272C532.991 83.6987 534.698 83.8267 536.49 83.656C538.367 83.4853 540.287 82.9307 542.25 81.992ZM622.336 97.736H622.08C620.373 102.429 617.685 105.757 614.016 107.72C610.432 109.683 606.208 110.664 601.344 110.664C594.944 110.664 589.739 108.787 585.728 105.032C581.803 101.192 579.84 95.6453 579.84 88.392V34.632L608.384 32.328L607.616 79.688C607.531 81.736 607.957 83.2293 608.896 84.168C609.92 85.0213 611.456 85.448 613.504 85.448C615.211 85.448 616.576 85.0213 617.6 84.168C618.709 83.3147 619.221 81.864 619.136 79.816L618.368 34.632L647.808 32.328L645.888 108.488L622.336 109.512V97.736ZM681.065 32.456V46.664H681.321C683.54 37.192 689.94 32.456 700.521 32.456C702.825 32.456 705.001 32.584 707.049 32.84L700.393 60.104C699.796 60.0187 699.156 59.976 698.473 59.976C697.876 59.976 697.022 59.976 695.913 59.976C692.329 59.976 689.214 61.1707 686.569 63.56C684.009 65.864 682.729 69.5333 682.729 74.568V107.464L655.849 109.768L655.081 34.76L681.065 32.456Z" fill="#2C7865"/>
<path d="M411.784 155.976L376.072 189.128L407.56 215.624L389.64 242.504L364.808 219.08L364.552 235.336L331.016 239.176L328.968 136.264L366.472 131.784L366.088 154.952L386.696 126.408L411.784 155.976ZM479.335 227.528C474.13 231.283 468.796 234.013 463.335 235.72C457.874 237.341 451.602 238.152 444.519 238.152C438.716 238.152 433.383 237.171 428.519 235.208C423.74 233.16 419.602 230.429 416.103 227.016C412.604 223.603 409.874 219.635 407.911 215.112C405.948 210.504 404.967 205.64 404.967 200.52C404.967 194.12 405.991 188.403 408.039 183.368C410.087 178.333 412.86 174.067 416.359 170.568C419.858 167.069 423.911 164.424 428.519 162.632C433.212 160.755 438.204 159.816 443.495 159.816C452.028 159.816 459.41 161.992 465.639 166.344C471.954 170.696 476.647 176.499 479.719 183.752L441.447 212.552C442.386 213.064 443.623 213.405 445.159 213.576C446.695 213.747 448.103 213.832 449.383 213.832C453.308 213.832 456.594 213.149 459.239 211.784C461.97 210.333 464.444 208.627 466.663 206.664L479.335 227.528ZM451.943 185.544C450.748 184.093 449.426 183.112 447.975 182.6C446.61 182.088 445.031 181.832 443.239 181.832C441.532 181.832 439.954 182.216 438.503 182.984C437.138 183.667 435.943 184.648 434.919 185.928C433.895 187.123 433.084 188.488 432.487 190.024C431.975 191.56 431.719 193.139 431.719 194.76C431.719 196.296 431.804 197.405 431.975 198.088C432.231 198.685 432.53 199.325 432.871 200.008L451.943 185.544ZM509.833 171.208H510.345C513.161 167.368 516.02 164.765 518.921 163.4C521.908 162.035 525.15 161.352 528.649 161.352C532.233 161.352 535.39 161.992 538.121 163.272C540.852 164.552 543.156 166.344 545.033 168.648C546.91 170.952 548.318 173.64 549.257 176.712C550.281 179.784 550.793 183.112 550.793 186.696V236.232L523.145 238.536L523.529 191.944C523.614 190.408 523.017 189.128 521.737 188.104C520.542 187.08 519.092 186.568 517.385 186.568C515.764 186.568 514.27 187.08 512.905 188.104C511.625 189.043 510.985 190.365 510.985 192.072L511.497 238.28L484.233 236.36L483.209 163.528L509.833 161.352V171.208ZM599.922 228.296H599.666C597.362 231.539 594.418 233.8 590.834 235.08C587.335 236.36 583.538 237 579.442 237C576.029 237 572.786 236.403 569.714 235.208C566.642 233.928 563.954 232.136 561.65 229.832C559.346 227.528 557.511 224.755 556.146 221.512C554.781 218.269 554.098 214.643 554.098 210.632C554.098 207.133 554.781 203.933 556.146 201.032C557.511 198.045 559.346 195.485 561.65 193.352C564.039 191.133 566.813 189.427 569.97 188.232C573.213 186.952 576.711 186.312 580.466 186.312C584.391 186.312 587.677 186.909 590.322 188.104C593.053 189.213 595.357 190.493 597.234 191.944V188.104C597.234 184.179 595.954 181.576 593.394 180.296C590.834 179.016 587.506 178.376 583.41 178.376C579.655 178.376 576.157 178.76 572.914 179.528C569.671 180.296 566.386 181.192 563.058 182.216L568.05 161.864C572.146 160.669 576.413 159.859 580.85 159.432C585.287 158.92 589.81 158.664 594.418 158.664C598.599 158.664 602.695 159.176 606.706 160.2C610.717 161.139 614.215 162.717 617.202 164.936C620.274 167.155 622.706 170.013 624.498 173.512C626.29 177.011 627.143 181.32 627.058 186.44L625.65 234.824L599.922 237V228.296ZM583.666 204.616C580.765 205.043 578.375 206.067 576.498 207.688C574.621 209.224 573.81 210.973 574.066 212.936C574.407 214.899 575.602 216.392 577.65 217.416C579.783 218.355 582.514 218.568 585.842 218.056C589.17 217.544 591.645 216.477 593.266 214.856C594.887 213.235 595.527 211.485 595.186 209.608C594.93 207.987 593.821 206.621 591.858 205.512C589.981 204.317 587.25 204.019 583.666 204.616ZM667.191 189.896L673.463 161.736L699.831 164.04L672.439 260.552L643.511 258.248L654.519 228.168L630.455 165.192L658.359 161.736L666.935 189.896H667.191Z" fill="#F5911D"/>
<path d="M249.235 204.719C244.239 210.003 245.689 212.789 248.167 218.687C249.556 221.992 252.243 227.346 254.336 231.413C255.978 234.602 256.361 237 261.937 237H299.734C303.141 237 305 234.517 305 231.413V166.541C305 143.883 297.255 130.536 279.596 125.259C279.596 125.259 301.833 21.5884 303.262 15.3806C304.69 9.17274 302.522 7 296.635 7C290.749 7 247.996 7.31035 247.996 7.31035C239.631 7.31035 238.702 8.86235 236.846 15.3806L218.785 83.6667C218.785 83.6667 217.954 85.5291 216.396 85.529C214.838 85.529 214.516 83.6667 214.516 83.6667V15.3806C214.516 9.79355 212.678 7 205.243 7L155.364 7C149.168 7 147 9.79353 147 15.3806L147 231.413C147 235.138 149.788 237 151.957 237H237.773C243.039 237 241.543 233.078 240.822 231.413L240.641 230.995C236.732 221.959 235.36 218.789 230.957 219.308C218.408 221.543 214.59 211.548 213.45 208.444L186.655 143.883C186.841 139.91 189.529 139.744 190.849 140.158C198.849 158.471 214.411 193.918 215.157 195.408C216.089 197.27 217.182 198.273 219.184 197.27C221.043 196.339 220.129 193.442 219.508 192.304L195.276 137.364C194.888 136.433 194.53 134.136 196.208 132.398C197.886 130.66 199.548 132.295 200.169 133.329L223.935 187.648C225.38 191.062 227.129 191.486 228.595 190.441C230.337 189.2 229.139 186.613 228.595 185.475L204.13 130.536C203.819 129.398 203.571 126.749 205.062 125.259C206.553 123.769 208.169 125.259 208.79 126.19L233.435 181.44C234.674 184.544 236.671 184.507 238.392 183.613C240.185 182.682 240.251 180.509 238.847 177.715L213.45 122.466C213.45 117.251 216.246 117.81 217.644 118.741C227.275 135.812 244.066 173.68 248.167 182.371C253.293 193.235 254.812 198.822 249.235 204.719Z" fill="#F5911D"/>
<rect x="102" y="7" width="97" height="16" rx="8" fill="#F5911D"/>
<rect x="12" y="142" width="156" height="16" rx="8" fill="#F5911D"/>
<rect x="66" y="33" width="133" height="16" rx="8" fill="#F5911D"/>
<rect x="102" y="168" width="66" height="16" rx="8" fill="#F5911D"/>
<rect x="66" y="168" width="26" height="16" rx="8" fill="#F5911D"/>
<rect x="116" y="221" width="50" height="16" rx="8" fill="#F5911D"/>
<rect x="26" y="221" width="80" height="16" rx="8" fill="#F5911D"/>
<rect x="59" y="194" width="109" height="16" rx="8" fill="#F5911D"/>
<rect x="26" y="59" width="173" height="15" rx="7.5" fill="#F5911D"/>
<rect x="98" y="117" width="67" height="15" rx="7.5" fill="#F5911D"/>
<rect y="117" width="88" height="15" rx="7.5" fill="#F5911D"/>
</svg>
